<svg width="780" height="234" viewBox="0 0 780 234" fill="none" xmlns="http://www.w3.org/2000/svg">
<path d="M176.586 26H63.4153C44.9588 26 30 41.0418 30 59.6007V173.399C30 191.958 44.9588 207 63.4153 207H176.586C195.043 207 210.001 191.958 210.001 173.399V59.6007C210.001 41.0418 195.043 26 176.586 26Z" fill="black"/>
<path d="M496.507 69.5436H484.723V161.295H496.507V69.5436Z" fill="black"/>
<path d="M528.257 69.5436H516.473V161.295H528.257V69.5436Z" fill="black"/>
<path d="M600.031 69.5436H588.248V161.295H600.031V69.5436Z" fill="black"/>
<path d="M421.396 67.5388C395.149 67.5388 373.713 88.9948 373.713 115.486C373.713 141.977 395.143 163.236 421.396 163.236C447.648 163.236 468.98 141.879 468.98 115.486C468.98 89.0933 447.643 67.5388 421.396 67.5388ZM421.407 150.657C401.971 150.657 386.211 134.85 386.211 115.509C386.211 96.1681 401.971 80.1181 421.407 80.1181C440.843 80.1181 456.482 95.9653 456.482 115.509C456.482 135.053 440.763 150.657 421.407 150.657Z" fill="black"/>
<path d="M531.875 69.5842L592.938 150.941V161.255H584.612L523.019 79.8284L526.24 69.5842H531.875Z" fill="black"/>
<path d="M349.604 130.058C344.072 142.186 331.862 150.657 317.692 150.657C298.256 150.657 282.496 134.85 282.496 115.509C282.496 96.1681 298.256 80.1181 317.692 80.1181C331.816 80.1181 343.997 88.5603 349.552 100.717H362.949C356.76 81.4623 338.817 67.5388 317.675 67.5388C291.428 67.5388 269.992 88.9948 269.992 115.486C269.992 141.977 291.422 163.236 317.675 163.236C338.869 163.236 356.847 149.313 362.995 130.058H349.604Z" fill="black"/>
<path d="M648.982 67.5388C632.075 67.5388 618.269 81.358 618.269 98.422C618.269 115.486 632.075 129.178 648.982 129.178C665.888 129.178 679.631 115.422 679.631 98.422C679.631 81.4218 665.888 67.5388 648.982 67.5388ZM648.982 116.535C638.967 116.535 630.848 108.388 630.848 98.422C630.848 88.456 638.967 80.1876 648.982 80.1876C658.997 80.1876 667.058 88.3517 667.058 98.422C667.058 108.492 658.956 116.535 648.982 116.535Z" fill="black"/>
<path d="M653.684 161.295H640.719L663.266 112.508H676.232L653.684 161.295Z" fill="black"/>
<path d="M736.747 109.24C741.432 104.819 744.324 98.7349 744.324 92.0194C744.324 78.4957 733.779 67.5388 719.316 67.5388C704.853 67.5388 694.308 78.5015 694.308 92.0194C694.308 98.7407 697.206 104.83 701.902 109.257C694.567 114.773 688.638 123.459 688.638 133.234C688.638 149.852 702.444 163.294 719.35 163.294C736.257 163.294 750 149.852 750 133.234C750 123.442 744.082 114.75 736.753 109.24H736.747ZM719.35 150.657C709.33 150.657 701.205 142.447 701.205 132.394C701.205 122.341 709.33 114.003 719.35 114.003C729.371 114.003 737.432 122.236 737.432 132.394C737.432 142.551 729.331 150.657 719.35 150.657ZM732.258 92.6394C732.258 99.8242 726.467 105.653 719.316 105.653C712.165 105.653 706.374 99.83 706.374 92.6394C706.374 85.4488 712.165 79.6256 719.316 79.6256C726.467 79.6256 732.258 85.4488 732.258 92.6394Z" fill="black"/>
<path d="M177.59 95.496V95.5075C177.59 95.7625 177.59 96.0116 177.578 96.2782C177.567 96.7127 177.544 97.1531 177.503 97.5935C177.463 98.057 177.411 98.5205 177.354 98.9783C177.175 100.34 176.887 101.678 176.495 102.988C176.363 103.434 176.218 103.88 176.057 104.315C172.819 101.58 169.108 99.3839 165.074 97.8716C165.213 97.1067 165.282 96.3187 165.282 95.5133C165.282 94.5747 165.184 93.6708 165.005 92.7843C164.965 92.5699 164.913 92.3497 164.855 92.1353C164.746 91.7065 164.619 91.2893 164.469 90.8838C164.319 90.4724 164.147 90.0668 163.956 89.667C162.931 87.5115 161.34 85.6747 159.375 84.3421C158.137 83.4961 156.736 82.8587 155.238 82.4705C155.025 82.4126 154.806 82.3604 154.593 82.3199C153.728 82.1403 152.824 82.0476 151.896 82.0476C151.447 82.0476 150.997 82.0707 150.559 82.1171C143.794 82.7892 138.51 88.5255 138.51 95.5133C138.51 96.3477 138.585 97.1647 138.735 97.9527C134.724 99.4824 131.031 101.684 127.816 104.431C127.061 102.385 126.559 100.253 126.34 98.0744C126.34 98.0106 126.329 97.9469 126.323 97.8774C126.277 97.3791 126.242 96.8808 126.225 96.3883C126.225 96.3535 126.225 96.3129 126.225 96.2782C126.225 96.0174 126.214 95.7625 126.214 95.5075V95.496C126.214 94.5573 126.26 93.6302 126.363 92.7147C126.398 92.3902 126.438 92.0716 126.479 91.7413C126.703 90.1884 127.066 88.6762 127.562 87.2218C127.677 86.8684 127.804 86.5149 127.942 86.1672C128.346 85.1185 128.818 84.1045 129.348 83.1253C129.538 82.7718 129.74 82.4242 129.948 82.0823C130.161 81.7347 130.374 81.3986 130.599 81.0683C130.835 80.7265 131.077 80.3788 131.319 80.0485C131.573 79.7183 131.815 79.4054 132.074 79.0809C132.074 79.0809 132.085 79.0809 132.085 79.0693C132.46 78.6116 132.858 78.1654 133.261 77.7367C133.67 77.3079 134.091 76.8907 134.529 76.4909C134.961 76.0853 135.404 75.7029 135.871 75.3321C136.102 75.1524 136.338 74.967 136.58 74.7816C138.718 73.1882 141.109 71.9135 143.691 71.0385C144.094 70.9053 144.492 70.7778 144.901 70.6561C145.298 70.546 145.702 70.4417 146.105 70.3432C146.116 70.3432 146.128 70.3432 146.134 70.3432C147.171 70.1057 148.237 69.9318 149.309 69.8217C149.522 69.7986 149.741 69.7812 149.96 69.7638C150.605 69.7174 151.268 69.6885 151.931 69.6885C153.694 69.6885 155.423 69.8681 157.088 70.21C157.503 70.2969 157.912 70.3954 158.321 70.4997C158.73 70.604 159.128 70.7141 159.537 70.8473C160.136 71.0327 160.73 71.2471 161.312 71.4789C161.565 71.5774 161.813 71.6817 162.061 71.7918C162.326 71.9019 162.591 72.0235 162.844 72.1452C165.535 73.4258 167.967 75.164 170.041 77.2499C170.474 77.6845 170.9 78.1423 171.303 78.6116C171.436 78.768 171.574 78.9303 171.712 79.0925C171.937 79.3648 172.15 79.643 172.358 79.9211C173.141 80.9582 173.85 82.0534 174.473 83.2122C174.668 83.5772 174.864 83.9423 175.037 84.3131C175.037 84.3305 175.055 84.3421 175.055 84.3479C175.222 84.6839 175.377 85.0374 175.521 85.385C175.723 85.8544 175.913 86.3295 176.08 86.8162C176.138 86.9553 176.19 87.0943 176.23 87.2334C176.72 88.6877 177.089 90.1942 177.308 91.7529C177.348 92.0832 177.394 92.4018 177.423 92.7263C177.532 93.6418 177.578 94.5631 177.578 95.5075L177.59 95.496Z" fill="#F0F0F0"/>
<path d="M113.952 137.562C113.952 151.787 102.427 163.294 88.3383 163.294C74.2495 163.294 62.6847 151.787 62.6847 137.562H74.9641C74.9641 144.961 80.9626 151.01 88.3383 151.01C95.714 151.01 101.615 144.961 101.615 137.562H113.952Z" fill="#F0F0F0"/>
<path d="M88.0329 69.6943C71.501 69.6943 58 83.2064 58 99.8938C58 116.581 71.501 129.966 88.0329 129.966C104.565 129.966 118.002 116.517 118.002 99.8938C118.002 83.2701 104.565 69.6943 88.0329 69.6943ZM88.0329 117.601C78.2371 117.601 70.3024 109.64 70.3024 99.8938C70.3024 90.1479 78.2428 82.0649 88.0329 82.0649C97.823 82.0649 105.706 90.0494 105.706 99.8938C105.706 109.738 97.7884 117.601 88.0329 117.601Z" fill="#F0F0F0"/>
<path d="M152.011 103.052C135.479 103.052 121.978 116.564 121.978 133.251C121.978 149.939 135.479 163.323 152.011 163.323C168.543 163.323 181.981 149.875 181.981 133.251C181.981 116.628 168.543 103.052 152.011 103.052ZM152.011 150.958C142.215 150.958 134.281 142.997 134.281 133.251C134.281 123.505 142.221 115.422 152.011 115.422C161.801 115.422 169.684 123.407 169.684 133.251C169.684 143.096 161.767 150.958 152.011 150.958Z" fill="#F0F0F0"/>
</svg>
